<?xml version="1.0" encoding="utf-8"?>
<!-- Generator: Adobe Illustrator 27.1.1, SVG Export Plug-In . SVG Version: 6.00 Build 0)  -->
<svg version="1.1" id="INTER_x5F_flat_x5F_Logo_x5F_white_-_sRGB"
	 xmlns="http://www.w3.org/2000/svg" xmlns:xlink="http://www.w3.org/1999/xlink" x="0px" y="0px"
	 viewBox="0 0 283.46457 113.38583" style="enable-background:new 0 0 283.46457 113.38583;" xml:space="preserve">
<path style="fill-rule:evenodd;clip-rule:evenodd;fill:#FFFFFF;" d="M6.80021,113.05209L1.56688,98.16647h2.12632l4.25355,12.90562
	H7.9884l4.29514-12.90562h2.06368l-5.29546,14.88562H6.80021z M17.18262,98.16647v14.88562h10.34107v-1.66776h-8.36057v-5.14914
	h7.73518v-1.66875h-7.73518v-4.73216h8.29793v-1.66781H17.18262z M38.17726,98.16647c1.4182,0,2.5232,0.34747,3.31546,1.04237
	c0.80599,0.69489,1.20924,1.64721,1.20924,2.85595c0,0.9034-0.20846,1.69617-0.62539,2.37738
	c-0.40279,0.68021-1.05655,1.1461-1.95995,1.39665v0.04109c0.43116,0.08418,0.77813,0.22314,1.04237,0.41792
	c0.27797,0.19479,0.4938,0.43066,0.64643,0.70863c0.16692,0.26424,0.28484,0.56275,0.35434,0.89649
	c0.08368,0.33374,0.14632,0.68121,0.18792,1.04237c0.02786,0.36115,0.04891,0.73013,0.06214,1.105
	c0.01418,0.37483,0.04896,0.7438,0.10473,1.10496c0.05527,0.3612,0.13214,0.70863,0.22951,1.04237
	c0.1106,0.32006,0.2706,0.60489,0.47886,0.85445h-2.20976c-0.13946-0.15269-0.23587-0.36115-0.29165-0.62539
	c-0.04164-0.26328-0.07-0.55499-0.08323-0.87499c-0.01468-0.33379-0.02836-0.68808-0.04204-1.06391
	c-0.01423-0.37484-0.05582-0.74285-0.12528-1.10501c-0.05532-0.36115-0.12483-0.70176-0.20852-1.02081
	c-0.08318-0.33374-0.21528-0.61852-0.39588-0.8554c-0.18055-0.25056-0.41743-0.44434-0.70908-0.58335
	c-0.29215-0.15364-0.68121-0.22996-1.16714-0.22996H33.1529v6.35883h-1.98045V98.16647H38.17726z M38.59418,104.92072
	c0.41743-0.0685,0.77908-0.20059,1.08446-0.39538c0.32006-0.20847,0.56961-0.47961,0.75067-0.81335
	c0.19428-0.34743,0.2922-0.79176,0.2922-1.33401c0-0.75067-0.20896-1.36237-0.62544-1.83513
	c-0.41743-0.4727-1.09177-0.70857-2.02254-0.70857H33.1529v5.19118h4.12832
	C37.73979,105.02546,38.17726,104.99123,38.59418,104.92072z M55.31568,102.5238h1.87622
	c-0.02786-0.82017-0.18742-1.52193-0.47956-2.10622c-0.27797-0.59703-0.66748-1.09032-1.16764-1.47984
	c-0.48643-0.38956-1.05655-0.67435-1.70935-0.85445c-0.6533-0.18105-1.36193-0.2711-2.12677-0.2711
	c-0.68071,0-1.34824,0.09005-2.00205,0.2711c-0.63912,0.16637-1.21555,0.43066-1.72989,0.79181
	c-0.50061,0.34743-0.90336,0.79863-1.20924,1.35556c-0.30588,0.54221-0.45852,1.18819-0.45852,1.93886
	c0,0.68121,0.13164,1.25083,0.39538,1.70985c0.27847,0.44434,0.64012,0.81236,1.08446,1.104
	c0.45902,0.27897,0.97336,0.50798,1.54348,0.68903c0.56911,0.16642,1.1461,0.31911,1.72989,0.45807
	c0.59753,0.12527,1.18183,0.25056,1.75144,0.37488c0.57012,0.12528,1.07709,0.2926,1.52193,0.50111
	c0.45907,0.19473,0.82022,0.45116,1.08396,0.77122c0.27847,0.32006,0.41698,0.73698,0.41698,1.25082
	c0,0.54221-0.1106,0.9866-0.33329,1.33401c-0.22264,0.34843-0.51434,0.62544-0.8755,0.83485
	c-0.3616,0.19383-0.77171,0.33279-1.23023,0.41698c-0.44484,0.08318-0.88968,0.12527-1.33401,0.12527
	c-0.55643,0-1.09864-0.0705-1.62666-0.20947c-0.52802-0.13895-0.99391-0.35429-1.39665-0.64598
	c-0.38956-0.29165-0.70912-0.66062-0.95918-1.10496c-0.23637-0.45807-0.35429-1.00027-0.35429-1.62571H45.8498
	c0,0.9024,0.16006,1.68835,0.48012,2.35583c0.33274,0.6528,0.77758,1.19505,1.33351,1.62566
	c0.57011,0.41698,1.22342,0.73018,1.9599,0.93764c0.75072,0.20847,1.54348,0.31319,2.37688,0.31319
	c0.68121,0,1.36238-0.08318,2.04359-0.24956c0.6949-0.15269,1.32034-0.40324,1.87622-0.75072
	c0.55593-0.3621,1.00814-0.82017,1.35556-1.37611c0.36115-0.56961,0.54226-1.25082,0.54226-2.04359
	c0-0.73598-0.13951-1.34769-0.41748-1.83412c-0.26424-0.48648-0.62539-0.88968-1.08441-1.20974
	c-0.44434-0.32006-0.95181-0.56962-1.52143-0.75072c-0.57011-0.19473-1.15396-0.36115-1.75194-0.50011
	c-0.58384-0.13895-1.16032-0.26424-1.72994-0.37583c-0.57062-0.12433-1.08446-0.27696-1.54348-0.45807
	c-0.44434-0.18105-0.80599-0.41006-1.08396-0.68803c-0.26374-0.29165-0.39588-0.66748-0.39588-1.12555
	c0-0.48643,0.09055-0.88968,0.2711-1.20974c0.19428-0.33374,0.44434-0.59798,0.75072-0.79276
	c0.31906-0.19378,0.68071-0.33279,1.08396-0.41597c0.4032-0.08414,0.81331-0.12528,1.23023-0.12528
	c1.02819,0,1.8689,0.24274,2.52271,0.72917C54.81552,100.68185,55.20458,101.45307,55.31568,102.5238z M61.54922,98.16647v14.88562
	h1.981V98.16647H61.54922z M78.58246,102.64908h1.98095c-0.11109-0.79276-0.34747-1.48766-0.70862-2.08569
	c-0.36161-0.61171-0.81331-1.11868-1.35551-1.52193c-0.54176-0.40325-1.16083-0.70858-1.85522-0.91709
	c-0.69489-0.20846-1.43238-0.31219-2.21001-0.31219c-1.14018,0-2.15469,0.20847-3.04431,0.62539
	c-0.876,0.4023-1.61248,0.95823-2.21001,1.66781c-0.58335,0.70857-1.02864,1.54247-1.33452,2.50166
	c-0.30582,0.94545-0.45852,1.9594-0.45852,3.04386c0,1.08441,0.13846,2.09937,0.41693,3.04386
	c0.29214,0.94545,0.7228,1.76562,1.29292,2.46052c0.56961,0.69494,1.28555,1.24401,2.14732,1.64725
	c0.86182,0.38852,1.8694,0.5833,3.02287,0.5833c1.90458,0,3.40552-0.52065,4.50365-1.56302s1.74458-2.50166,1.93935-4.37888
	h-1.98095c-0.04209,0.6117-0.16687,1.18132-0.37583,1.70985c-0.20802,0.52852-0.50016,0.98659-0.87499,1.37611
	c-0.36166,0.37483-0.79963,0.67435-1.31397,0.89654c-0.50016,0.20847-1.0771,0.31319-1.72994,0.31319
	c-0.88963,0-1.65402-0.16737-2.29365-0.50111c-0.63962-0.33379-1.16764-0.77813-1.58456-1.33401
	c-0.40324-0.56966-0.70176-1.23029-0.89654-1.981c-0.19474-0.7644-0.29215-1.56989-0.29215-2.41842
	c0-0.77813,0.09741-1.5288,0.29215-2.25111c0.19478-0.7233,0.49329-1.36243,0.89654-1.91931
	c0.41692-0.56961,0.93813-1.02081,1.56352-1.35456c0.63962-0.33374,1.40402-0.50016,2.29369-0.50016
	c1.04231,0,1.93886,0.26429,2.68952,0.79181C77.86697,100.80027,78.36027,101.59208,78.58246,102.64908z M84.42013,98.16647
	v14.88562h1.98019v-6.81689h7.84022v6.81689h1.98045V98.16647h-1.98045v6.39997h-7.84022v-6.39997H84.42013z M100.72369,98.16647
	v14.88562h10.34158v-1.66776h-8.36063v-5.14914h7.73468v-1.66875h-7.73468v-4.73216h8.29798v-1.66781H100.72369z
	 M121.71878,98.16647c1.41769,0,2.52271,0.34747,3.31546,1.04237c0.80599,0.69489,1.20874,1.64721,1.20874,2.85595
	c0,0.9034-0.20847,1.69617-0.62489,2.37738c-0.40325,0.68021-1.05655,1.1461-1.96041,1.39665v0.04109
	c0.43111,0.08418,0.77858,0.22314,1.04232,0.41792c0.27847,0.19479,0.4938,0.43066,0.64699,0.70863
	c0.16687,0.26424,0.28428,0.56275,0.35429,0.89649c0.08318,0.33374,0.14632,0.68121,0.18792,1.04237
	c0.0274,0.36115,0.04845,0.73013,0.06213,1.105c0.01418,0.37483,0.04845,0.7438,0.10423,1.10496
	c0.05577,0.3612,0.13214,0.70863,0.22951,1.04237c0.1106,0.32006,0.27065,0.60489,0.47911,0.85445h-2.21001
	c-0.13895-0.15269-0.23587-0.36115-0.29165-0.62539c-0.04159-0.26328-0.07001-0.55499-0.08318-0.87499
	c-0.01418-0.33379-0.02791-0.68808-0.04209-1.06391c-0.01368-0.37484-0.05532-0.74285-0.12528-1.10501
	c-0.05532-0.36115-0.12477-0.70176-0.20846-1.02081c-0.08319-0.33374-0.21483-0.61852-0.39594-0.8554
	c-0.18055-0.25056-0.41692-0.44434-0.70857-0.58335c-0.29214-0.15364-0.68121-0.22996-1.16764-0.22996h-4.8369v6.35883h-1.98145
	V98.16647H121.71878z M122.13576,104.92072c0.41743-0.0685,0.77858-0.20059,1.08391-0.39538
	c0.32006-0.20847,0.57011-0.47961,0.75072-0.81335c0.19478-0.34743,0.29214-0.79176,0.29214-1.33401
	c0-0.75067-0.20896-1.36237-0.62543-1.83513c-0.41743-0.4727-1.09128-0.70857-2.02254-0.70857h-4.92008v5.19118h4.12782
	C121.28081,105.02546,121.71878,104.99123,122.13576,104.92072z M142.12987,107.67294v-9.50647h-1.98v9.50647
	c0,1.33501-0.33374,2.34997-1.00128,3.04386c-0.6528,0.68121-1.61192,1.02282-2.87744,1.02282
	c-1.33426,0-2.35558-0.34161-3.0647-1.02282c-0.70908-0.69389-1.06337-1.70885-1.06337-3.04386v-9.50647h-1.9805v9.50647
	c0,1.98782,0.5349,3.44125,1.60562,4.35833c1.08395,0.90336,2.58534,1.35456,4.50294,1.35456
	c1.87622,0,3.32184-0.47175,4.33679-1.4172C141.62285,111.00945,142.12987,109.57757,142.12987,107.67294z M146.52954,98.16647
	v14.88562h1.87622v-11.94643h0.04208l7.77608,11.94643h2.16837V98.16647h-1.87622v12.07177h-0.04208l-7.83922-12.07177H146.52954z
	 M173.98749,111.19736l0.52115,1.85472h1.25084v-7.83871h-6.5257v1.66781h4.75371c0.02791,0.68116-0.06264,1.32028-0.2711,1.91831
	c-0.20847,0.58329-0.52121,1.09814-0.93864,1.54247c-0.40274,0.43066-0.90285,0.77222-1.50089,1.02182
	c-0.59752,0.25056-1.28555,0.37583-2.06413,0.37583c-0.83389,0-1.57039-0.1605-2.21001-0.48056
	c-0.62538-0.33279-1.15341-0.77126-1.58456-1.31252c-0.43066-0.55688-0.75754-1.18914-0.97974-1.89776
	c-0.22264-0.72326-0.33374-1.47298-0.33374-2.25205c0-0.79181,0.09743-1.56307,0.29216-2.31374
	c0.19478-0.7644,0.49329-1.43874,0.89653-2.02304c0.41693-0.59703,0.94496-1.07659,1.58458-1.43875
	c0.6528-0.36115,1.43138-0.54125,2.33478-0.54125c0.55594,0,1.07761,0.0695,1.56403,0.20847
	c0.50011,0.12433,0.94495,0.31911,1.33401,0.58334c0.38951,0.26424,0.71594,0.60484,0.97972,1.02182
	c0.26474,0.4032,0.4453,0.88968,0.54221,1.4593h1.98096c-0.13896-0.876-0.40324-1.61885-0.79225-2.23056
	c-0.3754-0.62539-0.8481-1.14023-1.41771-1.54348c-0.55594-0.40224-1.19556-0.69489-1.91837-0.87499
	c-0.70857-0.19473-1.46609-0.29165-2.2726-0.29165c-1.18132,0-2.21681,0.2222-3.10649,0.66653
	c-0.8755,0.4306-1.61249,1.01495-2.21001,1.75194c-0.5838,0.73598-1.02864,1.59825-1.33401,2.58485
	c-0.29216,0.97286-0.43797,2.0015-0.43797,3.08595c0,0.97286,0.1595,1.91145,0.47955,2.81485
	c0.31956,0.90336,0.78496,1.70198,1.39665,2.39788c0.61171,0.69394,1.35558,1.25082,2.23106,1.66776
	c0.87544,0.40229,1.86935,0.60389,2.98122,0.60389c0.87544,0,1.74458-0.16637,2.6064-0.50011
	C172.68088,112.53825,173.40369,111.97549,173.98749,111.19736z M188.53981,102.5238h1.87627
	c-0.02791-0.82017-0.18791-1.52193-0.47961-2.10622c-0.27792-0.59703-0.66748-1.09032-1.16759-1.47984
	c-0.48643-0.38956-1.05655-0.67435-1.70941-0.85445c-0.65379-0.18105-1.36237-0.2711-2.12677-0.2711
	c-0.68121,0-1.34819,0.09005-2.0015,0.2711c-0.63911,0.16637-1.21559,0.43066-1.73044,0.79181
	c-0.50011,0.34743-0.90337,0.79863-1.20874,1.35556c-0.30582,0.54221-0.45901,1.18819-0.45901,1.93886
	c0,0.68121,0.13214,1.25083,0.39587,1.70985c0.27847,0.44434,0.63962,0.81236,1.08446,1.104
	c0.45853,0.27897,0.97287,0.50798,1.54298,0.68903c0.56961,0.16642,1.14609,0.31911,1.72993,0.45807
	c0.59749,0.12527,1.18134,0.25056,1.75095,0.37488c0.57062,0.12528,1.07759,0.2926,1.52243,0.50111
	c0.45853,0.19473,0.81967,0.45116,1.08397,0.77122c0.27795,0.32006,0.41692,0.73698,0.41692,1.25082
	c0,0.54221-0.1106,0.9866-0.33324,1.33401c-0.2227,0.34843-0.51434,0.62544-0.87601,0.83485
	c-0.36115,0.19383-0.77121,0.33279-1.23027,0.41698c-0.44434,0.08318-0.88918,0.12527-1.33401,0.12527
	c-0.5564,0-1.09814-0.0705-1.62616-0.20947c-0.52753-0.13895-0.99341-0.35429-1.39665-0.64598
	c-0.38907-0.29165-0.70863-0.66062-0.95868-1.10496c-0.23639-0.45807-0.3548-1.00027-0.3548-1.62571h-1.87622
	c0,0.9024,0.15952,1.68835,0.47957,2.35583c0.33324,0.6528,0.77809,1.19505,1.33401,1.62566
	c0.57011,0.41698,1.22342,0.73018,1.9599,0.93764c0.75021,0.20847,1.54253,0.31319,2.37639,0.31319
	c0.68121,0,1.36243-0.08318,2.04314-0.24956c0.69539-0.15269,1.32079-0.40324,1.87672-0.75072
	c0.55592-0.3621,1.00758-0.82017,1.35506-1.37611c0.36165-0.56961,0.54221-1.25082,0.54221-2.04359
	c0-0.73598-0.13896-1.34769-0.41693-1.83412c-0.26424-0.48648-0.62544-0.88968-1.08446-1.20974
	c-0.44484-0.32006-0.95181-0.56962-1.52193-0.75072c-0.56963-0.19473-1.15341-0.36115-1.75145-0.50011
	c-0.5838-0.13895-1.16028-0.26424-1.73039-0.37583c-0.56961-0.12433-1.08345-0.27696-1.54248-0.45807
	c-0.44438-0.18105-0.80598-0.41006-1.08395-0.68803c-0.26428-0.29165-0.39638-0.66748-0.39638-1.12555
	c0-0.48643,0.0905-0.88968,0.2711-1.20974c0.19473-0.33374,0.44484-0.59798,0.75067-0.79276
	c0.31955-0.19378,0.68121-0.33279,1.08345-0.41597c0.40324-0.08414,0.81335-0.12528,1.23029-0.12528
	c1.02863,0,1.8694,0.24274,2.52321,0.72917C188.0392,100.68185,188.42827,101.45307,188.53981,102.5238z M205.82381,111.19736
	l0.52121,1.85472h1.25082v-7.83871h-6.52625v1.66781h4.75421c0.0274,0.68116-0.06264,1.32028-0.2711,1.91831
	c-0.20897,0.58329-0.52167,1.09814-0.93858,1.54247c-0.40324,0.43066-0.90291,0.77222-1.50089,1.02182
	c-0.59804,0.25056-1.28606,0.37583-2.06419,0.37583c-0.83385,0-1.57037-0.1605-2.20996-0.48056
	c-0.62543-0.33279-1.15396-0.77126-1.58456-1.31252c-0.43115-0.55688-0.75758-1.18914-0.98022-1.89776
	c-0.2222-0.72326-0.33374-1.47298-0.33374-2.25205c0-0.79181,0.09737-1.56307,0.29214-2.31374
	c0.19478-0.7644,0.4938-1.43874,0.89655-2.02304c0.41692-0.59703,0.94545-1.07659,1.58456-1.43875
	c0.65331-0.36115,1.43188-0.54125,2.33524-0.54125c0.55594,0,1.0771,0.0695,1.56352,0.20847
	c0.50067,0.12433,0.94551,0.31911,1.33452,0.58334c0.38907,0.26424,0.71548,0.60484,0.97972,1.02182
	c0.2643,0.4032,0.44534,0.88968,0.54221,1.4593h1.9805c-0.13901-0.876-0.40274-1.61885-0.79181-2.23056
	c-0.37582-0.62539-0.84808-1.14023-1.41769-1.54348c-0.55638-0.40224-1.19551-0.69489-1.9183-0.87499
	c-0.70914-0.19473-1.46666-0.29165-2.27266-0.29165c-1.18132,0-2.21732,0.2222-3.10649,0.66653
	c-0.87595,0.4306-1.61249,1.01495-2.20996,1.75194c-0.58385,0.73598-1.02869,1.59825-1.33452,2.58485
	c-0.29214,0.97286-0.43802,2.0015-0.43802,3.08595c0,0.97286,0.16005,1.91145,0.47961,2.81485
	c0.32001,0.90336,0.78545,1.70198,1.39716,2.39788c0.61121,0.69394,1.35506,1.25082,2.2305,1.66776
	c0.87599,0.40229,1.8699,0.60389,2.98172,0.60389c0.8755,0,1.74463-0.16637,2.6064-0.50011
	C204.5172,112.53825,205.24001,111.97549,205.82381,111.19736z M218.77057,98.16647c1.4182,0,2.52269,0.34747,3.31546,1.04237
	c0.80598,0.69489,1.20923,1.64721,1.20923,2.85595c0,0.9034-0.20895,1.69617-0.62543,2.37738
	c-0.40326,0.68021-1.05655,1.1461-1.96042,1.39665v0.04109c0.43117,0.08418,0.77858,0.22314,1.04288,0.41792
	c0.27797,0.19479,0.49329,0.43066,0.64644,0.70863c0.16687,0.26424,0.28482,0.56275,0.35432,0.89649
	c0.08319,0.33374,0.14629,0.68121,0.18793,1.04237c0.02736,0.36115,0.04842,0.73013,0.06213,1.105
	c0.01418,0.37483,0.04846,0.7438,0.10423,1.10496c0.05577,0.3612,0.13214,0.70863,0.22951,1.04237
	c0.1111,0.32006,0.2711,0.60489,0.47957,0.85445h-2.21046c-0.13901-0.15269-0.23587-0.36115-0.29164-0.62539
	c-0.0416-0.26328-0.0695-0.55499-0.08324-0.87499c-0.01419-0.33379-0.02786-0.68808-0.0416-1.06391
	c-0.01418-0.37484-0.05577-0.74285-0.12527-1.10501c-0.05528-0.36115-0.12527-0.70176-0.20847-1.02081
	c-0.08368-0.33374-0.21533-0.61852-0.39638-0.8554c-0.18056-0.25056-0.41693-0.44434-0.70863-0.58335
	c-0.29214-0.15364-0.68115-0.22996-1.16759-0.22996h-4.83694v6.35883h-1.98096V98.16647H218.77057z M219.18748,104.92072
	c0.41743-0.0685,0.77858-0.20059,1.08446-0.39538c0.31956-0.20847,0.56963-0.47961,0.75021-0.81335
	c0.19473-0.34743,0.29216-0.79176,0.29216-1.33401c0-0.75067-0.20851-1.36237-0.62544-1.83513
	c-0.41693-0.4727-1.09128-0.70857-2.02205-0.70857h-4.92062v5.19118h4.12782
	C218.33304,105.02546,218.77057,104.99123,219.18748,104.92072z M239.18159,107.67294v-9.50647h-1.98044v9.50647
	c0,1.33501-0.33374,2.34997-1.00078,3.04386c-0.65331,0.68121-1.61249,1.02282-2.87749,1.02282
	c-1.33401,0-2.35579-0.34161-3.06491-1.02282c-0.70857-0.69389-1.06342-1.70885-1.06342-3.04386v-9.50647h-1.98045v9.50647
	c0,1.98782,0.5349,3.44125,1.60512,4.35833c1.08446,0.90336,2.58585,1.35456,4.50366,1.35456
	c1.87627,0,3.32233-0.47175,4.33678-1.4172C238.67412,111.00945,239.18159,109.57757,239.18159,107.67294z M249.46033,105.29655
	c1.12601,0.01373,1.94572-0.21528,2.46002-0.68803c0.52802-0.47275,0.79231-1.15392,0.79231-2.04359
	c0-0.88873-0.2643-1.56307-0.79231-2.02209c-0.5143-0.4727-1.33401-0.70857-2.46002-0.70857h-3.87825v5.46228H249.46033z
	 M250.12732,98.16647c1.50137,0,2.63379,0.38857,3.39819,1.16765c0.77858,0.7644,1.16759,1.84099,1.16759,3.23083
	c0,1.39079-0.38901,2.47424-1.16759,3.25333c-0.7644,0.77808-1.89682,1.16077-3.39819,1.1461h-4.54524v6.08772h-1.98051V98.16647
	H250.12732z M264.22162,105.29655c1.12555,0.01373,1.94574-0.21528,2.46008-0.68803
	c0.52802-0.47275,0.79224-1.15392,0.79224-2.04359c0-0.88873-0.26422-1.56307-0.79224-2.02209
	c-0.51434-0.4727-1.33453-0.70857-2.46008-0.70857h-3.87827v5.46228H264.22162z M264.88861,98.16647
	c1.50137,0,2.63379,0.38857,3.39819,1.16765c0.77856,0.7644,1.16763,1.84099,1.16763,3.23083
	c0,1.39079-0.38907,2.47424-1.16763,3.25333c-0.7644,0.77808-1.89682,1.16077-3.39819,1.1461h-4.54526v6.08772h-1.98096V98.16647
	H264.88861z M273.12326,98.16647v14.88562h10.34131v-1.66776h-8.36038v-5.14914h7.73495v-1.66875h-7.73495v-4.73216h8.29819
	v-1.66781H273.12326z M2.58373,86.21188h29.01948l-0.01562-46.90319H2.56857L2.58373,86.21188z M39.95358,39.30869l0.09973,46.90319
	h28.92347V44.44587h9.45532v41.76601h29.03466V39.30869H39.95358z M78.4321,29.03514v5.13693h36.92667v52.03981h29.03561V34.17206
	h69.5351v-5.13693h-69.5351V18.76083L115.35877,0v29.03514H78.4321z M221.82074,39.30869v46.90319h29.0349V44.44587h9.45534
	v18.31516h23.15359V39.30869H221.82074z M190.77538,57.62341V44.44587h-9.45483v13.17754H190.77538z M181.32054,62.76103v18.31422
	h32.60893v5.13663h-61.64433V39.30869h61.64433v23.45234H181.32054z M7.82649,17.08627c0-8.09053,5.78203-14.23438,5.79084-14.23633
	C7.20117,4.40769,2.43656,10.19067,2.43656,17.08627H7.82649z M17.08576,34.17206c9.43655,0,17.08579-7.64954,17.08579-17.08629
	C34.17155,7.64927,26.52231,0,17.08576,0C7.64901,0,0,7.64927,0,17.08577C0,26.52252,7.64901,34.17206,17.08576,34.17206z"/>
<g>
</g>
<g>
</g>
<g>
</g>
<g>
</g>
<g>
</g>
<g>
</g>
</svg>
